<svg viewBox="0 0 31 31" xmlns="http://www.w3.org/2000/svg" fill="#1a1816" shape-rendering="crispEdges"><rect x="1" y="1" width="1" height="1"/><rect x="2" y="1" width="1" height="1"/><rect x="3" y="1" width="1" height="1"/><rect x="4" y="1" width="1" height="1"/><rect x="5" y="1" width="1" height="1"/><rect x="6" y="1" width="1" height="1"/><rect x="7" y="1" width="1" height="1"/><rect x="11" y="1" width="1" height="1"/><rect x="12" y="1" width="1" height="1"/><rect x="15" y="1" width="1" height="1"/><rect x="19" y="1" width="1" height="1"/><rect x="20" y="1" width="1" height="1"/><rect x="23" y="1" width="1" height="1"/><rect x="24" y="1" width="1" height="1"/><rect x="25" y="1" width="1" height="1"/><rect x="26" y="1" width="1" height="1"/><rect x="27" y="1" width="1" height="1"/><rect x="28" y="1" width="1" height="1"/><rect x="29" y="1" width="1" height="1"/><rect x="1" y="2" width="1" height="1"/><rect x="7" y="2" width="1" height="1"/><rect x="10" y="2" width="1" height="1"/><rect x="11" y="2" width="1" height="1"/><rect x="17" y="2" width="1" height="1"/><rect x="18" y="2" width="1" height="1"/><rect x="19" y="2" width="1" height="1"/><rect x="21" y="2" width="1" height="1"/><rect x="23" y="2" width="1" height="1"/><rect x="29" y="2" width="1" height="1"/><rect x="1" y="3" width="1" height="1"/><rect x="3" y="3" width="1" height="1"/><rect x="4" y="3" width="1" height="1"/><rect x="5" y="3" width="1" height="1"/><rect x="7" y="3" width="1" height="1"/><rect x="10" y="3" width="1" height="1"/><rect x="12" y="3" width="1" height="1"/><rect x="15" y="3" width="1" height="1"/><rect x="16" y="3" width="1" height="1"/><rect x="18" y="3" width="1" height="1"/><rect x="19" y="3" width="1" height="1"/><rect x="20" y="3" width="1" height="1"/><rect x="23" y="3" width="1" height="1"/><rect x="25" y="3" width="1" height="1"/><rect x="26" y="3" width="1" height="1"/><rect x="27" y="3" width="1" height="1"/><rect x="29" y="3" width="1" height="1"/><rect x="1" y="4" width="1" height="1"/><rect x="3" y="4" width="1" height="1"/><rect x="4" y="4" width="1" height="1"/><rect x="5" y="4" width="1" height="1"/><rect x="7" y="4" width="1" height="1"/><rect x="11" y="4" width="1" height="1"/><rect x="13" y="4" width="1" height="1"/><rect x="14" y="4" width="1" height="1"/><rect x="17" y="4" width="1" height="1"/><rect x="19" y="4" width="1" height="1"/><rect x="23" y="4" width="1" height="1"/><rect x="25" y="4" width="1" height="1"/><rect x="26" y="4" width="1" height="1"/><rect x="27" y="4" width="1" height="1"/><rect x="29" y="4" width="1" height="1"/><rect x="1" y="5" width="1" height="1"/><rect x="3" y="5" width="1" height="1"/><rect x="4" y="5" width="1" height="1"/><rect x="5" y="5" width="1" height="1"/><rect x="7" y="5" width="1" height="1"/><rect x="10" y="5" width="1" height="1"/><rect x="12" y="5" width="1" height="1"/><rect x="13" y="5" width="1" height="1"/><rect x="23" y="5" width="1" height="1"/><rect x="25" y="5" width="1" height="1"/><rect x="26" y="5" width="1" height="1"/><rect x="27" y="5" width="1" height="1"/><rect x="29" y="5" width="1" height="1"/><rect x="1" y="6" width="1" height="1"/><rect x="7" y="6" width="1" height="1"/><rect x="9" y="6" width="1" height="1"/><rect x="10" y="6" width="1" height="1"/><rect x="11" y="6" width="1" height="1"/><rect x="12" y="6" width="1" height="1"/><rect x="13" y="6" width="1" height="1"/><rect x="16" y="6" width="1" height="1"/><rect x="17" y="6" width="1" height="1"/><rect x="18" y="6" width="1" height="1"/><rect x="19" y="6" width="1" height="1"/><rect x="20" y="6" width="1" height="1"/><rect x="21" y="6" width="1" height="1"/><rect x="23" y="6" width="1" height="1"/><rect x="29" y="6" width="1" height="1"/><rect x="1" y="7" width="1" height="1"/><rect x="2" y="7" width="1" height="1"/><rect x="3" y="7" width="1" height="1"/><rect x="4" y="7" width="1" height="1"/><rect x="5" y="7" width="1" height="1"/><rect x="6" y="7" width="1" height="1"/><rect x="7" y="7" width="1" height="1"/><rect x="9" y="7" width="1" height="1"/><rect x="11" y="7" width="1" height="1"/><rect x="13" y="7" width="1" height="1"/><rect x="15" y="7" width="1" height="1"/><rect x="17" y="7" width="1" height="1"/><rect x="19" y="7" width="1" height="1"/><rect x="21" y="7" width="1" height="1"/><rect x="23" y="7" width="1" height="1"/><rect x="24" y="7" width="1" height="1"/><rect x="25" y="7" width="1" height="1"/><rect x="26" y="7" width="1" height="1"/><rect x="27" y="7" width="1" height="1"/><rect x="28" y="7" width="1" height="1"/><rect x="29" y="7" width="1" height="1"/><rect x="11" y="8" width="1" height="1"/><rect x="14" y="8" width="1" height="1"/><rect x="16" y="8" width="1" height="1"/><rect x="17" y="8" width="1" height="1"/><rect x="18" y="8" width="1" height="1"/><rect x="19" y="8" width="1" height="1"/><rect x="20" y="8" width="1" height="1"/><rect x="1" y="9" width="1" height="1"/><rect x="4" y="9" width="1" height="1"/><rect x="6" y="9" width="1" height="1"/><rect x="7" y="9" width="1" height="1"/><rect x="9" y="9" width="1" height="1"/><rect x="12" y="9" width="1" height="1"/><rect x="15" y="9" width="1" height="1"/><rect x="17" y="9" width="1" height="1"/><rect x="19" y="9" width="1" height="1"/><rect x="21" y="9" width="1" height="1"/><rect x="22" y="9" width="1" height="1"/><rect x="24" y="9" width="1" height="1"/><rect x="2" y="10" width="1" height="1"/><rect x="4" y="10" width="1" height="1"/><rect x="5" y="10" width="1" height="1"/><rect x="6" y="10" width="1" height="1"/><rect x="10" y="10" width="1" height="1"/><rect x="13" y="10" width="1" height="1"/><rect x="14" y="10" width="1" height="1"/><rect x="16" y="10" width="1" height="1"/><rect x="17" y="10" width="1" height="1"/><rect x="21" y="10" width="1" height="1"/><rect x="22" y="10" width="1" height="1"/><rect x="23" y="10" width="1" height="1"/><rect x="24" y="10" width="1" height="1"/><rect x="26" y="10" width="1" height="1"/><rect x="29" y="10" width="1" height="1"/><rect x="5" y="11" width="1" height="1"/><rect x="6" y="11" width="1" height="1"/><rect x="7" y="11" width="1" height="1"/><rect x="9" y="11" width="1" height="1"/><rect x="11" y="11" width="1" height="1"/><rect x="12" y="11" width="1" height="1"/><rect x="13" y="11" width="1" height="1"/><rect x="14" y="11" width="1" height="1"/><rect x="15" y="11" width="1" height="1"/><rect x="16" y="11" width="1" height="1"/><rect x="18" y="11" width="1" height="1"/><rect x="20" y="11" width="1" height="1"/><rect x="22" y="11" width="1" height="1"/><rect x="23" y="11" width="1" height="1"/><rect x="26" y="11" width="1" height="1"/><rect x="27" y="11" width="1" height="1"/><rect x="28" y="11" width="1" height="1"/><rect x="1" y="12" width="1" height="1"/><rect x="5" y="12" width="1" height="1"/><rect x="10" y="12" width="1" height="1"/><rect x="14" y="12" width="1" height="1"/><rect x="17" y="12" width="1" height="1"/><rect x="20" y="12" width="1" height="1"/><rect x="24" y="12" width="1" height="1"/><rect x="25" y="12" width="1" height="1"/><rect x="27" y="12" width="1" height="1"/><rect x="28" y="12" width="1" height="1"/><rect x="2" y="13" width="1" height="1"/><rect x="7" y="13" width="1" height="1"/><rect x="11" y="13" width="1" height="1"/><rect x="13" y="13" width="1" height="1"/><rect x="15" y="13" width="1" height="1"/><rect x="16" y="13" width="1" height="1"/><rect x="17" y="13" width="1" height="1"/><rect x="18" y="13" width="1" height="1"/><rect x="20" y="13" width="1" height="1"/><rect x="21" y="13" width="1" height="1"/><rect x="22" y="13" width="1" height="1"/><rect x="23" y="13" width="1" height="1"/><rect x="26" y="13" width="1" height="1"/><rect x="28" y="13" width="1" height="1"/><rect x="29" y="13" width="1" height="1"/><rect x="3" y="14" width="1" height="1"/><rect x="4" y="14" width="1" height="1"/><rect x="8" y="14" width="1" height="1"/><rect x="11" y="14" width="1" height="1"/><rect x="14" y="14" width="1" height="1"/><rect x="15" y="14" width="1" height="1"/><rect x="16" y="14" width="1" height="1"/><rect x="17" y="14" width="1" height="1"/><rect x="20" y="14" width="1" height="1"/><rect x="3" y="15" width="1" height="1"/><rect x="5" y="15" width="1" height="1"/><rect x="7" y="15" width="1" height="1"/><rect x="9" y="15" width="1" height="1"/><rect x="10" y="15" width="1" height="1"/><rect x="14" y="15" width="1" height="1"/><rect x="15" y="15" width="1" height="1"/><rect x="18" y="15" width="1" height="1"/><rect x="19" y="15" width="1" height="1"/><rect x="23" y="15" width="1" height="1"/><rect x="25" y="15" width="1" height="1"/><rect x="26" y="15" width="1" height="1"/><rect x="27" y="15" width="1" height="1"/><rect x="28" y="15" width="1" height="1"/><rect x="29" y="15" width="1" height="1"/><rect x="1" y="16" width="1" height="1"/><rect x="2" y="16" width="1" height="1"/><rect x="4" y="16" width="1" height="1"/><rect x="6" y="16" width="1" height="1"/><rect x="8" y="16" width="1" height="1"/><rect x="9" y="16" width="1" height="1"/><rect x="10" y="16" width="1" height="1"/><rect x="11" y="16" width="1" height="1"/><rect x="12" y="16" width="1" height="1"/><rect x="17" y="16" width="1" height="1"/><rect x="18" y="16" width="1" height="1"/><rect x="20" y="16" width="1" height="1"/><rect x="21" y="16" width="1" height="1"/><rect x="23" y="16" width="1" height="1"/><rect x="26" y="16" width="1" height="1"/><rect x="28" y="16" width="1" height="1"/><rect x="1" y="17" width="1" height="1"/><rect x="5" y="17" width="1" height="1"/><rect x="6" y="17" width="1" height="1"/><rect x="7" y="17" width="1" height="1"/><rect x="9" y="17" width="1" height="1"/><rect x="10" y="17" width="1" height="1"/><rect x="14" y="17" width="1" height="1"/><rect x="17" y="17" width="1" height="1"/><rect x="18" y="17" width="1" height="1"/><rect x="21" y="17" width="1" height="1"/><rect x="22" y="17" width="1" height="1"/><rect x="28" y="17" width="1" height="1"/><rect x="3" y="18" width="1" height="1"/><rect x="4" y="18" width="1" height="1"/><rect x="6" y="18" width="1" height="1"/><rect x="8" y="18" width="1" height="1"/><rect x="9" y="18" width="1" height="1"/><rect x="14" y="18" width="1" height="1"/><rect x="15" y="18" width="1" height="1"/><rect x="17" y="18" width="1" height="1"/><rect x="22" y="18" width="1" height="1"/><rect x="23" y="18" width="1" height="1"/><rect x="24" y="18" width="1" height="1"/><rect x="26" y="18" width="1" height="1"/><rect x="29" y="18" width="1" height="1"/><rect x="1" y="19" width="1" height="1"/><rect x="3" y="19" width="1" height="1"/><rect x="5" y="19" width="1" height="1"/><rect x="6" y="19" width="1" height="1"/><rect x="7" y="19" width="1" height="1"/><rect x="9" y="19" width="1" height="1"/><rect x="12" y="19" width="1" height="1"/><rect x="13" y="19" width="1" height="1"/><rect x="15" y="19" width="1" height="1"/><rect x="23" y="19" width="1" height="1"/><rect x="25" y="19" width="1" height="1"/><rect x="28" y="19" width="1" height="1"/><rect x="29" y="19" width="1" height="1"/><rect x="3" y="20" width="1" height="1"/><rect x="12" y="20" width="1" height="1"/><rect x="15" y="20" width="1" height="1"/><rect x="18" y="20" width="1" height="1"/><rect x="19" y="20" width="1" height="1"/><rect x="23" y="20" width="1" height="1"/><rect x="24" y="20" width="1" height="1"/><rect x="28" y="20" width="1" height="1"/><rect x="29" y="20" width="1" height="1"/><rect x="1" y="21" width="1" height="1"/><rect x="4" y="21" width="1" height="1"/><rect x="6" y="21" width="1" height="1"/><rect x="7" y="21" width="1" height="1"/><rect x="8" y="21" width="1" height="1"/><rect x="9" y="21" width="1" height="1"/><rect x="12" y="21" width="1" height="1"/><rect x="16" y="21" width="1" height="1"/><rect x="17" y="21" width="1" height="1"/><rect x="21" y="21" width="1" height="1"/><rect x="22" y="21" width="1" height="1"/><rect x="23" y="21" width="1" height="1"/><rect x="24" y="21" width="1" height="1"/><rect x="25" y="21" width="1" height="1"/><rect x="27" y="21" width="1" height="1"/><rect x="9" y="22" width="1" height="1"/><rect x="10" y="22" width="1" height="1"/><rect x="15" y="22" width="1" height="1"/><rect x="17" y="22" width="1" height="1"/><rect x="18" y="22" width="1" height="1"/><rect x="19" y="22" width="1" height="1"/><rect x="20" y="22" width="1" height="1"/><rect x="21" y="22" width="1" height="1"/><rect x="25" y="22" width="1" height="1"/><rect x="27" y="22" width="1" height="1"/><rect x="28" y="22" width="1" height="1"/><rect x="29" y="22" width="1" height="1"/><rect x="1" y="23" width="1" height="1"/><rect x="2" y="23" width="1" height="1"/><rect x="3" y="23" width="1" height="1"/><rect x="4" y="23" width="1" height="1"/><rect x="5" y="23" width="1" height="1"/><rect x="6" y="23" width="1" height="1"/><rect x="7" y="23" width="1" height="1"/><rect x="10" y="23" width="1" height="1"/><rect x="11" y="23" width="1" height="1"/><rect x="13" y="23" width="1" height="1"/><rect x="18" y="23" width="1" height="1"/><rect x="19" y="23" width="1" height="1"/><rect x="21" y="23" width="1" height="1"/><rect x="23" y="23" width="1" height="1"/><rect x="25" y="23" width="1" height="1"/><rect x="28" y="23" width="1" height="1"/><rect x="1" y="24" width="1" height="1"/><rect x="7" y="24" width="1" height="1"/><rect x="9" y="24" width="1" height="1"/><rect x="11" y="24" width="1" height="1"/><rect x="15" y="24" width="1" height="1"/><rect x="17" y="24" width="1" height="1"/><rect x="21" y="24" width="1" height="1"/><rect x="25" y="24" width="1" height="1"/><rect x="26" y="24" width="1" height="1"/><rect x="27" y="24" width="1" height="1"/><rect x="1" y="25" width="1" height="1"/><rect x="3" y="25" width="1" height="1"/><rect x="4" y="25" width="1" height="1"/><rect x="5" y="25" width="1" height="1"/><rect x="7" y="25" width="1" height="1"/><rect x="10" y="25" width="1" height="1"/><rect x="13" y="25" width="1" height="1"/><rect x="16" y="25" width="1" height="1"/><rect x="17" y="25" width="1" height="1"/><rect x="18" y="25" width="1" height="1"/><rect x="21" y="25" width="1" height="1"/><rect x="22" y="25" width="1" height="1"/><rect x="23" y="25" width="1" height="1"/><rect x="24" y="25" width="1" height="1"/><rect x="25" y="25" width="1" height="1"/><rect x="29" y="25" width="1" height="1"/><rect x="1" y="26" width="1" height="1"/><rect x="3" y="26" width="1" height="1"/><rect x="4" y="26" width="1" height="1"/><rect x="5" y="26" width="1" height="1"/><rect x="7" y="26" width="1" height="1"/><rect x="9" y="26" width="1" height="1"/><rect x="12" y="26" width="1" height="1"/><rect x="13" y="26" width="1" height="1"/><rect x="18" y="26" width="1" height="1"/><rect x="23" y="26" width="1" height="1"/><rect x="25" y="26" width="1" height="1"/><rect x="26" y="26" width="1" height="1"/><rect x="27" y="26" width="1" height="1"/><rect x="28" y="26" width="1" height="1"/><rect x="1" y="27" width="1" height="1"/><rect x="3" y="27" width="1" height="1"/><rect x="4" y="27" width="1" height="1"/><rect x="5" y="27" width="1" height="1"/><rect x="7" y="27" width="1" height="1"/><rect x="11" y="27" width="1" height="1"/><rect x="14" y="27" width="1" height="1"/><rect x="15" y="27" width="1" height="1"/><rect x="17" y="27" width="1" height="1"/><rect x="18" y="27" width="1" height="1"/><rect x="20" y="27" width="1" height="1"/><rect x="25" y="27" width="1" height="1"/><rect x="26" y="27" width="1" height="1"/><rect x="27" y="27" width="1" height="1"/><rect x="29" y="27" width="1" height="1"/><rect x="1" y="28" width="1" height="1"/><rect x="7" y="28" width="1" height="1"/><rect x="11" y="28" width="1" height="1"/><rect x="12" y="28" width="1" height="1"/><rect x="17" y="28" width="1" height="1"/><rect x="18" y="28" width="1" height="1"/><rect x="19" y="28" width="1" height="1"/><rect x="20" y="28" width="1" height="1"/><rect x="21" y="28" width="1" height="1"/><rect x="23" y="28" width="1" height="1"/><rect x="25" y="28" width="1" height="1"/><rect x="28" y="28" width="1" height="1"/><rect x="1" y="29" width="1" height="1"/><rect x="2" y="29" width="1" height="1"/><rect x="3" y="29" width="1" height="1"/><rect x="4" y="29" width="1" height="1"/><rect x="5" y="29" width="1" height="1"/><rect x="6" y="29" width="1" height="1"/><rect x="7" y="29" width="1" height="1"/><rect x="9" y="29" width="1" height="1"/><rect x="10" y="29" width="1" height="1"/><rect x="11" y="29" width="1" height="1"/><rect x="13" y="29" width="1" height="1"/><rect x="14" y="29" width="1" height="1"/><rect x="15" y="29" width="1" height="1"/><rect x="16" y="29" width="1" height="1"/><rect x="18" y="29" width="1" height="1"/><rect x="19" y="29" width="1" height="1"/><rect x="21" y="29" width="1" height="1"/><rect x="23" y="29" width="1" height="1"/><rect x="24" y="29" width="1" height="1"/><rect x="26" y="29" width="1" height="1"/><rect x="28" y="29" width="1" height="1"/></svg>